<?xml version="1.0" encoding="UTF-8" standalone="no"?>
<!DOCTYPE svg PUBLIC "-//W3C//DTD SVG 1.1//EN"
 "http://www.w3.org/Graphics/SVG/1.1/DTD/svg11.dtd">
<!-- Generated by graphviz version 14.1.5 (20260411.2331)
 -->
<!-- Title: SD Pages: 1 -->
<svg width="680pt" height="358pt"
 viewBox="0.00 0.00 680.00 358.00" xmlns="http://www.w3.org/2000/svg" xmlns:xlink="http://www.w3.org/1999/xlink">
<g id="graph0" class="graph" transform="scale(1 1) rotate(0) translate(21.6 336.5)">
<title>SD</title>
<polygon fill="#ffffff" stroke="none" points="-21.6,21.6 -21.6,-336.5 658.79,-336.5 658.79,21.6 -21.6,21.6"/>
<text xml:space="preserve" text-anchor="middle" x="318.6" y="-293.8" font-family="Microsoft YaHei" font-size="18.00">SD &#160;系统环境与主要价值</text>
<text xml:space="preserve" text-anchor="middle" x="318.6" y="-269.05" font-family="Microsoft YaHei" font-size="18.00">ISO 19450:2024 · OPM semantic mapping / DOT</text>
<!-- catalog -->
<g id="node1" class="node">
<title>catalog</title>
<polygon fill="#f8fafc" stroke="#64748b" stroke-width="1.3" points="146.54,-257.4 19.88,-257.4 19.88,-213 146.54,-213 146.54,-257.4"/>
<text xml:space="preserve" text-anchor="middle" x="83.21" y="-239.75" font-family="Microsoft YaHei" font-size="11.00">已发布目录</text>
<text xml:space="preserve" text-anchor="middle" x="83.21" y="-224.75" font-family="Microsoft YaHei" font-size="11.00">Published Catalogue</text>
</g>
<!-- support -->
<g id="node5" class="node">
<title>support</title>
<ellipse fill="#eff6ff" stroke="#174da6" stroke-width="1.3" cx="346.72" cy="-128.2" rx="89.56" ry="31.4"/>
<text xml:space="preserve" text-anchor="middle" x="346.72" y="-132.75" font-family="Microsoft YaHei" font-size="11.00">寻找留学与科研机会</text>
<text xml:space="preserve" text-anchor="middle" x="346.72" y="-117.75" font-family="Microsoft YaHei" font-size="11.00">Opportunity Finding</text>
</g>
<!-- catalog&#45;&gt;support -->
<g id="edge4" class="edge">
<title>catalog&#45;&gt;support</title>
<path fill="none" stroke="#64748b" stroke-width="1.1" d="M139.99,-212.38C181.39,-195.44 237.95,-172.3 281.28,-154.57"/>
<ellipse fill="none" stroke="#64748b" stroke-width="1.1" cx="284.21" cy="-153.37" rx="2.8" ry="2.8"/>
<text xml:space="preserve" text-anchor="middle" x="211.78" y="-195.48" font-family="Segoe UI" font-size="9.00">instrument</text>
</g>
<!-- need -->
<g id="node2" class="node">
<title>need</title>
<polygon fill="#f8fafc" stroke="#64748b" stroke-width="1.3" points="140.91,-186.4 25.5,-186.4 25.5,-142 140.91,-142 140.91,-186.4"/>
<text xml:space="preserve" text-anchor="middle" x="83.21" y="-168.75" font-family="Microsoft YaHei" font-size="11.00">机会需求</text>
<text xml:space="preserve" text-anchor="middle" x="83.21" y="-153.75" font-family="Microsoft YaHei" font-size="11.00">Opportunity Need</text>
</g>
<!-- need&#45;&gt;support -->
<g id="edge3" class="edge">
<title>need&#45;&gt;support</title>
<path fill="none" stroke="#64748b" stroke-width="1.1" d="M141.27,-156.34C174.87,-151.72 218.11,-145.77 256.16,-140.53"/>
<ellipse fill="none" stroke="#64748b" stroke-width="1.1" cx="259.39" cy="-140.08" rx="2.8" ry="2.8"/>
<text xml:space="preserve" text-anchor="middle" x="211.78" y="-153.62" font-family="Segoe UI" font-size="9.00">instrument</text>
</g>
<!-- platform -->
<g id="node3" class="node">
<title>platform</title>
<polygon fill="#f8fafc" stroke="#64748b" stroke-width="1.3" points="166.41,-115.4 0,-115.4 0,-71 166.41,-71 166.41,-115.4"/>
<text xml:space="preserve" text-anchor="middle" x="83.21" y="-97.75" font-family="Microsoft YaHei" font-size="11.00">捷克留学与科研平台</text>
<text xml:space="preserve" text-anchor="middle" x="83.21" y="-82.75" font-family="Microsoft YaHei" font-size="11.00">Czech Opportunity Platform</text>
</g>
<!-- platform&#45;&gt;support -->
<g id="edge2" class="edge">
<title>platform&#45;&gt;support</title>
<path fill="none" stroke="#64748b" stroke-width="1.1" d="M166.95,-104.27C195.33,-108.07 227.22,-112.34 256.11,-116.21"/>
<ellipse fill="none" stroke="#64748b" stroke-width="1.1" cx="259.3" cy="-116.63" rx="2.8" ry="2.8"/>
<text xml:space="preserve" text-anchor="middle" x="211.78" y="-117" font-family="Segoe UI" font-size="9.00">instrument</text>
</g>
<!-- shortlist -->
<g id="node4" class="node">
<title>shortlist</title>
<polygon fill="#f8fafc" stroke="#64748b" stroke-width="1.3" points="637.19,-150.4 506.03,-150.4 506.03,-106 637.19,-106 637.19,-150.4"/>
<text xml:space="preserve" text-anchor="middle" x="571.61" y="-132.75" font-family="Microsoft YaHei" font-size="11.00">机会候选清单</text>
<text xml:space="preserve" text-anchor="middle" x="571.61" y="-117.75" font-family="Microsoft YaHei" font-size="11.00">Opportunity Shortlist</text>
</g>
<!-- support&#45;&gt;shortlist -->
<g id="edge5" class="edge">
<title>support&#45;&gt;shortlist</title>
<path fill="none" stroke="#166534" stroke-width="1.1" d="M436.78,-128.2C456.74,-128.2 477.7,-128.2 496.96,-128.2"/>
<polygon fill="#166534" stroke="#166534" stroke-width="1.1" points="496.72,-130.65 503.72,-128.2 496.72,-125.75 496.72,-130.65"/>
<text xml:space="preserve" text-anchor="middle" x="471.16" y="-132.4" font-family="Segoe UI" font-size="9.00">result</text>
</g>
<!-- user -->
<g id="node6" class="node">
<title>user</title>
<polygon fill="#f8fafc" stroke="#64748b" stroke-width="2.6" stroke-dasharray="5,2" points="117.66,-44.4 48.75,-44.4 48.75,0 117.66,0 117.66,-44.4"/>
<text xml:space="preserve" text-anchor="middle" x="83.21" y="-26.75" font-family="Microsoft YaHei" font-size="11.00">申请者</text>
<text xml:space="preserve" text-anchor="middle" x="83.21" y="-11.75" font-family="Microsoft YaHei" font-size="11.00">Applicant</text>
</g>
<!-- user&#45;&gt;support -->
<g id="edge1" class="edge">
<title>user&#45;&gt;support</title>
<path fill="none" stroke="#1f2937" stroke-width="1.1" d="M118.93,-36.28C160.05,-52.94 229.42,-81.06 280.63,-101.82"/>
<ellipse fill="#1f2937" stroke="#1f2937" stroke-width="1.1" cx="283.68" cy="-103.05" rx="2.8" ry="2.8"/>
<text xml:space="preserve" text-anchor="middle" x="211.78" y="-85.75" font-family="Segoe UI" font-size="9.00">agent</text>
</g>
</g>
</svg>
