<?xml version="1.0" encoding="UTF-8" standalone="no"?>
<!DOCTYPE svg PUBLIC "-//W3C//DTD SVG 1.1//EN"
 "http://www.w3.org/Graphics/SVG/1.1/DTD/svg11.dtd">
<!-- Generated by graphviz version 14.1.5 (20260411.2331)
 -->
<!-- Title: SD3 Pages: 1 -->
<svg width="1601pt" height="903pt"
 viewBox="0.00 0.00 1601.00 903.00" xmlns="http://www.w3.org/2000/svg" xmlns:xlink="http://www.w3.org/1999/xlink">
<g id="graph0" class="graph" transform="scale(1 1) rotate(0) translate(21.6 881.01)">
<title>SD3</title>
<polygon fill="#ffffff" stroke="none" points="-21.6,21.6 -21.6,-881.01 1579.73,-881.01 1579.73,21.6 -21.6,21.6"/>
<text xml:space="preserve" text-anchor="middle" x="779.06" y="-838.31" font-family="Microsoft YaHei" font-size="18.00">SD3 &#160;可信目录维护与三语发布</text>
<text xml:space="preserve" text-anchor="middle" x="779.06" y="-813.56" font-family="Microsoft YaHei" font-size="18.00">ISO 19450:2024 · OPM semantic mapping / DOT</text>
<g id="clust1" class="cluster">
<title>cluster_bundle</title>
<polygon fill="#ffffff" stroke="#64748b" points="939.34,-314.2 939.34,-486.2 1060.34,-486.2 1060.34,-314.2 939.34,-314.2"/>
<text xml:space="preserve" text-anchor="middle" x="999.84" y="-470.8" font-family="Microsoft YaHei" font-size="12.00">三语内容包</text>
<text xml:space="preserve" text-anchor="middle" x="999.84" y="-454.3" font-family="Microsoft YaHei" font-size="12.00">Translation Bundle</text>
</g>
<g id="clust2" class="cluster">
<title>cluster_facts</title>
<polygon fill="#ffffff" stroke="#64748b" points="940.09,-494.2 940.09,-737.2 1059.59,-737.2 1059.59,-494.2 940.09,-494.2"/>
<text xml:space="preserve" text-anchor="middle" x="999.84" y="-721.8" font-family="Microsoft YaHei" font-size="12.00">结构化记录</text>
<text xml:space="preserve" text-anchor="middle" x="999.84" y="-705.3" font-family="Microsoft YaHei" font-size="12.00">Structured Record</text>
</g>
<g id="clust3" class="cluster">
<title>cluster_snapshot</title>
<polygon fill="#ffffff" stroke="#64748b" points="931.46,-63.2 931.46,-306.2 1068.21,-306.2 1068.21,-63.2 931.46,-63.2"/>
<text xml:space="preserve" text-anchor="middle" x="999.84" y="-290.8" font-family="Microsoft YaHei" font-size="12.00">发布快照</text>
<text xml:space="preserve" text-anchor="middle" x="999.84" y="-274.3" font-family="Microsoft YaHei" font-size="12.00">Publication Snapshot</text>
</g>
<!-- reviewed -->
<g id="node1" class="node">
<title>reviewed</title>
<path fill="#fff7e6" stroke="#b7791f" stroke-width="1.3" d="M1025.54,-366.4C1025.54,-366.4 973.13,-366.4 973.13,-366.4 967.13,-366.4 961.13,-360.4 961.13,-354.4 961.13,-354.4 961.13,-334 961.13,-334 961.13,-328 967.13,-322 973.13,-322 973.13,-322 1025.54,-322 1025.54,-322 1031.54,-322 1037.54,-328 1037.54,-334 1037.54,-334 1037.54,-354.4 1037.54,-354.4 1037.54,-360.4 1031.54,-366.4 1025.54,-366.4"/>
<text xml:space="preserve" text-anchor="middle" x="999.34" y="-348.75" font-family="Microsoft YaHei" font-size="11.00">三语已复核</text>
<text xml:space="preserve" text-anchor="middle" x="999.34" y="-333.75" font-family="Microsoft YaHei" font-size="11.00">reviewed</text>
</g>
<!-- publish -->
<g id="node17" class="node">
<title>publish</title>
<ellipse fill="#eff6ff" stroke="#174da6" stroke-width="1.3" cx="1267.69" cy="-505.2" rx="89.03" ry="31.4"/>
<text xml:space="preserve" text-anchor="middle" x="1267.69" y="-509.75" font-family="Microsoft YaHei" font-size="11.00">发布一致版本</text>
<text xml:space="preserve" text-anchor="middle" x="1267.69" y="-494.75" font-family="Microsoft YaHei" font-size="11.00">Snapshot Publishing</text>
</g>
<!-- reviewed&#45;&gt;publish -->
<g id="edge20" class="edge">
<title>reviewed&#45;&gt;publish</title>
<path fill="none" stroke="#64748b" stroke-width="1.1" d="M1038.02,-348.29C1071.56,-353.82 1119.9,-366.69 1150.42,-396.45 1172.09,-417.59 1154.04,-437.81 1174.42,-460.2 1181.27,-467.73 1189.67,-474.14 1198.57,-479.56"/>
<ellipse fill="none" stroke="#64748b" stroke-width="1.1" cx="1201.27" cy="-481.12" rx="2.8" ry="2.8"/>
<text xml:space="preserve" text-anchor="middle" x="1129.04" y="-400.65" font-family="Segoe UI" font-size="9.00">instrument</text>
</g>
<!-- translated -->
<g id="node2" class="node">
<title>translated</title>
<path fill="#fff7e6" stroke="#b7791f" stroke-width="1.3" d="M1019.92,-437.4C1019.92,-437.4 978.76,-437.4 978.76,-437.4 972.76,-437.4 966.76,-431.4 966.76,-425.4 966.76,-425.4 966.76,-405 966.76,-405 966.76,-399 972.76,-393 978.76,-393 978.76,-393 1019.92,-393 1019.92,-393 1025.92,-393 1031.92,-399 1031.92,-405 1031.92,-405 1031.92,-425.4 1031.92,-425.4 1031.92,-431.4 1025.92,-437.4 1019.92,-437.4"/>
<text xml:space="preserve" text-anchor="middle" x="999.34" y="-419.75" font-family="Microsoft YaHei" font-size="11.00">翻译草稿</text>
<text xml:space="preserve" text-anchor="middle" x="999.34" y="-404.75" font-family="Microsoft YaHei" font-size="11.00">draft</text>
</g>
<!-- review -->
<g id="node21" class="node">
<title>review</title>
<ellipse fill="#eff6ff" stroke="#174da6" stroke-width="1.3" cx="729.92" cy="-397.2" rx="94.34" ry="31.4"/>
<text xml:space="preserve" text-anchor="middle" x="729.92" y="-401.75" font-family="Microsoft YaHei" font-size="11.00">复核三语内容</text>
<text xml:space="preserve" text-anchor="middle" x="729.92" y="-386.75" font-family="Microsoft YaHei" font-size="11.00">Translation Reviewing</text>
</g>
<!-- translated&#45;&gt;review -->
<g id="edge15" class="edge">
<title>translated&#45;&gt;review</title>
<path fill="none" stroke="#b45309" stroke-width="1.1" d="M966.19,-413.04C932.9,-410.8 879.18,-407.18 831.47,-403.97"/>
<polygon fill="#b45309" stroke="#b45309" stroke-width="1.1" points="831.76,-401.53 824.61,-403.51 831.43,-406.42 831.76,-401.53"/>
<text xml:space="preserve" text-anchor="middle" x="869.63" y="-412.01" font-family="Segoe UI" font-size="9.00">input</text>
</g>
<!-- draft -->
<g id="node3" class="node">
<title>draft</title>
<path fill="#fff7e6" stroke="#b7791f" stroke-width="1.3" d="M1014.34,-617.4C1014.34,-617.4 984.34,-617.4 984.34,-617.4 978.34,-617.4 972.34,-611.4 972.34,-605.4 972.34,-605.4 972.34,-585 972.34,-585 972.34,-579 978.34,-573 984.34,-573 984.34,-573 1014.34,-573 1014.34,-573 1020.34,-573 1026.34,-579 1026.34,-585 1026.34,-585 1026.34,-605.4 1026.34,-605.4 1026.34,-611.4 1020.34,-617.4 1014.34,-617.4"/>
<text xml:space="preserve" text-anchor="middle" x="999.34" y="-599.75" font-family="Microsoft YaHei" font-size="11.00">待核验</text>
<text xml:space="preserve" text-anchor="middle" x="999.34" y="-584.75" font-family="Microsoft YaHei" font-size="11.00">draft</text>
</g>
<!-- reject -->
<g id="node19" class="node">
<title>reject</title>
<ellipse fill="#eff6ff" stroke="#174da6" stroke-width="1.3" cx="729.92" cy="-577.2" rx="85.85" ry="31.4"/>
<text xml:space="preserve" text-anchor="middle" x="729.92" y="-581.75" font-family="Microsoft YaHei" font-size="11.00">标记不符合发布要求</text>
<text xml:space="preserve" text-anchor="middle" x="729.92" y="-566.75" font-family="Microsoft YaHei" font-size="11.00">Record Rejecting</text>
</g>
<!-- draft&#45;&gt;reject -->
<g id="edge10" class="edge">
<title>draft&#45;&gt;reject</title>
<path fill="none" stroke="#b45309" stroke-width="1.1" d="M972.04,-589.3C950.41,-584.76 918.9,-578.87 891.01,-576.45 869.5,-574.59 846.3,-573.92 824.42,-573.9"/>
<polygon fill="#b45309" stroke="#b45309" stroke-width="1.1" points="824.44,-571.45 817.45,-573.92 824.45,-576.35 824.44,-571.45"/>
<text xml:space="preserve" text-anchor="middle" x="869.63" y="-580.65" font-family="Segoe UI" font-size="9.00">input</text>
</g>
<!-- verify -->
<g id="node24" class="node">
<title>verify</title>
<ellipse fill="#eff6ff" stroke="#174da6" stroke-width="1.3" cx="729.92" cy="-667.2" rx="74.18" ry="31.4"/>
<text xml:space="preserve" text-anchor="middle" x="729.92" y="-671.75" font-family="Microsoft YaHei" font-size="11.00">核验关键字段</text>
<text xml:space="preserve" text-anchor="middle" x="729.92" y="-656.75" font-family="Microsoft YaHei" font-size="11.00">Record Verifying</text>
</g>
<!-- draft&#45;&gt;verify -->
<g id="edge5" class="edge">
<title>draft&#45;&gt;verify</title>
<path fill="none" stroke="#b45309" stroke-width="1.1" d="M971.94,-602.31C932.65,-612.89 857.41,-633.14 801.4,-648.22"/>
<polygon fill="#b45309" stroke="#b45309" stroke-width="1.1" points="801.01,-645.79 794.89,-649.98 802.29,-650.52 801.01,-645.79"/>
<text xml:space="preserve" text-anchor="middle" x="869.63" y="-639.71" font-family="Segoe UI" font-size="9.00">input</text>
</g>
<!-- rejected -->
<g id="node4" class="node">
<title>rejected</title>
<path fill="#fff7e6" stroke="#b7791f" stroke-width="1.3" d="M1036.79,-546.4C1036.79,-546.4 961.88,-546.4 961.88,-546.4 955.88,-546.4 949.88,-540.4 949.88,-534.4 949.88,-534.4 949.88,-514 949.88,-514 949.88,-508 955.88,-502 961.88,-502 961.88,-502 1036.79,-502 1036.79,-502 1042.79,-502 1048.79,-508 1048.79,-514 1048.79,-514 1048.79,-534.4 1048.79,-534.4 1048.79,-540.4 1042.79,-546.4 1036.79,-546.4"/>
<text xml:space="preserve" text-anchor="middle" x="999.34" y="-528.75" font-family="Microsoft YaHei" font-size="11.00">不符合发布要求</text>
<text xml:space="preserve" text-anchor="middle" x="999.34" y="-513.75" font-family="Microsoft YaHei" font-size="11.00">rejected</text>
</g>
<!-- verified -->
<g id="node5" class="node">
<title>verified</title>
<path fill="#fff7e6" stroke="#b7791f" stroke-width="1.3" d="M1016.92,-688.4C1016.92,-688.4 981.76,-688.4 981.76,-688.4 975.76,-688.4 969.76,-682.4 969.76,-676.4 969.76,-676.4 969.76,-656 969.76,-656 969.76,-650 975.76,-644 981.76,-644 981.76,-644 1016.92,-644 1016.92,-644 1022.92,-644 1028.92,-650 1028.92,-656 1028.92,-656 1028.92,-676.4 1028.92,-676.4 1028.92,-682.4 1022.92,-688.4 1016.92,-688.4"/>
<text xml:space="preserve" text-anchor="middle" x="999.34" y="-670.75" font-family="Microsoft YaHei" font-size="11.00">已核验</text>
<text xml:space="preserve" text-anchor="middle" x="999.34" y="-655.75" font-family="Microsoft YaHei" font-size="11.00">verified</text>
</g>
<!-- verified&#45;&gt;publish -->
<g id="edge19" class="edge">
<title>verified&#45;&gt;publish</title>
<path fill="none" stroke="#64748b" stroke-width="1.1" d="M1029.56,-655.63C1045.86,-649.31 1066.32,-640.68 1083.67,-631.2 1134.32,-603.51 1188.29,-565.14 1224.4,-538.04"/>
<ellipse fill="none" stroke="#64748b" stroke-width="1.1" cx="1226.92" cy="-536.14" rx="2.8" ry="2.8"/>
<text xml:space="preserve" text-anchor="middle" x="1129.04" y="-620.36" font-family="Segoe UI" font-size="9.00">instrument</text>
</g>
<!-- translate -->
<g id="node23" class="node">
<title>translate</title>
<ellipse fill="#eff6ff" stroke="#174da6" stroke-width="1.3" cx="1267.69" cy="-415.2" rx="85.85" ry="31.4"/>
<text xml:space="preserve" text-anchor="middle" x="1267.69" y="-419.75" font-family="Microsoft YaHei" font-size="11.00">生成三语译文</text>
<text xml:space="preserve" text-anchor="middle" x="1267.69" y="-404.75" font-family="Microsoft YaHei" font-size="11.00">Content Translating</text>
</g>
<!-- verified&#45;&gt;translate -->
<g id="edge13" class="edge">
<title>verified&#45;&gt;translate</title>
<path fill="none" stroke="#64748b" stroke-width="1.1" d="M1029.33,-659.93C1046.98,-654.81 1068.89,-645.94 1083.67,-631.2 1103.06,-611.86 1095.4,-598.93 1107.67,-574.45 1134.01,-521.87 1131.3,-500.2 1174.42,-460.2 1182.39,-452.8 1191.81,-446.38 1201.52,-440.88"/>
<ellipse fill="none" stroke="#64748b" stroke-width="1.1" cx="1204.33" cy="-439.35" rx="2.8" ry="2.8"/>
<text xml:space="preserve" text-anchor="middle" x="1129.04" y="-578.65" font-family="Segoe UI" font-size="9.00">instrument</text>
</g>
<!-- archived -->
<g id="node6" class="node">
<title>archived</title>
<path fill="#fff7e6" stroke="#b7791f" stroke-width="1.3" d="M1019.17,-115.4C1019.17,-115.4 979.51,-115.4 979.51,-115.4 973.51,-115.4 967.51,-109.4 967.51,-103.4 967.51,-103.4 967.51,-83 967.51,-83 967.51,-77 973.51,-71 979.51,-71 979.51,-71 1019.17,-71 1019.17,-71 1025.17,-71 1031.17,-77 1031.17,-83 1031.17,-83 1031.17,-103.4 1031.17,-103.4 1031.17,-109.4 1025.17,-115.4 1019.17,-115.4"/>
<text xml:space="preserve" text-anchor="middle" x="999.34" y="-97.75" font-family="Microsoft YaHei" font-size="11.00">已归档</text>
<text xml:space="preserve" text-anchor="middle" x="999.34" y="-82.75" font-family="Microsoft YaHei" font-size="11.00">archived</text>
</g>
<!-- live -->
<g id="node7" class="node">
<title>live</title>
<path fill="#fff7e6" stroke="#b7791f" stroke-width="1.3" d="M1019.92,-257.4C1019.92,-257.4 978.76,-257.4 978.76,-257.4 972.76,-257.4 966.76,-251.4 966.76,-245.4 966.76,-245.4 966.76,-225 966.76,-225 966.76,-219 972.76,-213 978.76,-213 978.76,-213 1019.92,-213 1019.92,-213 1025.92,-213 1031.92,-219 1031.92,-225 1031.92,-225 1031.92,-245.4 1031.92,-245.4 1031.92,-251.4 1025.92,-257.4 1019.92,-257.4"/>
<text xml:space="preserve" text-anchor="middle" x="999.34" y="-239.75" font-family="Microsoft YaHei" font-size="11.00">当前版本</text>
<text xml:space="preserve" text-anchor="middle" x="999.34" y="-224.75" font-family="Microsoft YaHei" font-size="11.00">current</text>
</g>
<!-- archive -->
<g id="node10" class="node">
<title>archive</title>
<ellipse fill="#eff6ff" stroke="#174da6" stroke-width="1.3" cx="1267.69" cy="-112.2" rx="85.85" ry="31.4"/>
<text xml:space="preserve" text-anchor="middle" x="1267.69" y="-116.75" font-family="Microsoft YaHei" font-size="11.00">归档截止或撤回记录</text>
<text xml:space="preserve" text-anchor="middle" x="1267.69" y="-101.75" font-family="Microsoft YaHei" font-size="11.00">Snapshot Archiving</text>
</g>
<!-- live&#45;&gt;archive -->
<g id="edge27" class="edge">
<title>live&#45;&gt;archive</title>
<path fill="none" stroke="#b45309" stroke-width="1.1" d="M1032.49,-225.1C1063.66,-214.68 1111.77,-196.92 1150.42,-175.2 1162.04,-168.67 1163.04,-164.15 1174.42,-157.2 1183.96,-151.37 1194.37,-145.69 1204.65,-140.44"/>
<polygon fill="#b45309" stroke="#b45309" stroke-width="1.1" points="1205.46,-142.78 1210.61,-137.45 1203.26,-138.4 1205.46,-142.78"/>
<text xml:space="preserve" text-anchor="middle" x="1129.04" y="-199.15" font-family="Segoe UI" font-size="9.00">input</text>
</g>
<!-- invalidate -->
<g id="node15" class="node">
<title>invalidate</title>
<ellipse fill="#eff6ff" stroke="#174da6" stroke-width="1.3" cx="1267.69" cy="-202.2" rx="93.27" ry="31.4"/>
<text xml:space="preserve" text-anchor="middle" x="1267.69" y="-206.75" font-family="Microsoft YaHei" font-size="11.00">标记源更新待复核</text>
<text xml:space="preserve" text-anchor="middle" x="1267.69" y="-191.75" font-family="Microsoft YaHei" font-size="11.00">Snapshot Invalidating</text>
</g>
<!-- live&#45;&gt;invalidate -->
<g id="edge24" class="edge">
<title>live&#45;&gt;invalidate</title>
<path fill="none" stroke="#b45309" stroke-width="1.1" d="M1032.31,-232.51C1062.73,-229.83 1109.77,-225.37 1150.42,-220.2 1158.16,-219.21 1166.19,-218.12 1174.24,-216.98"/>
<polygon fill="#b45309" stroke="#b45309" stroke-width="1.1" points="1174.39,-219.43 1180.97,-216 1173.69,-214.58 1174.39,-219.43"/>
<text xml:space="preserve" text-anchor="middle" x="1129.04" y="-229.21" font-family="Segoe UI" font-size="9.00">input</text>
</g>
<!-- stale -->
<g id="node8" class="node">
<title>stale</title>
<path fill="#fff7e6" stroke="#b7791f" stroke-width="1.3" d="M1031.17,-186.4C1031.17,-186.4 967.51,-186.4 967.51,-186.4 961.51,-186.4 955.51,-180.4 955.51,-174.4 955.51,-174.4 955.51,-154 955.51,-154 955.51,-148 961.51,-142 967.51,-142 967.51,-142 1031.17,-142 1031.17,-142 1037.17,-142 1043.17,-148 1043.17,-154 1043.17,-154 1043.17,-174.4 1043.17,-174.4 1043.17,-180.4 1037.17,-186.4 1031.17,-186.4"/>
<text xml:space="preserve" text-anchor="middle" x="999.34" y="-168.75" font-family="Microsoft YaHei" font-size="11.00">待复核</text>
<text xml:space="preserve" text-anchor="middle" x="999.34" y="-153.75" font-family="Microsoft YaHei" font-size="11.00">needs review</text>
</g>
<!-- retry -->
<g id="node20" class="node">
<title>retry</title>
<ellipse fill="#eff6ff" stroke="#174da6" stroke-width="1.3" cx="729.92" cy="-307.2" rx="85.85" ry="31.4"/>
<text xml:space="preserve" text-anchor="middle" x="729.92" y="-311.75" font-family="Microsoft YaHei" font-size="11.00">准备新核验版本</text>
<text xml:space="preserve" text-anchor="middle" x="729.92" y="-296.75" font-family="Microsoft YaHei" font-size="11.00">Record Repreparing</text>
</g>
<!-- stale&#45;&gt;retry -->
<g id="edge31" class="edge">
<title>stale&#45;&gt;retry</title>
<path fill="none" stroke="#64748b" stroke-width="1.1" d="M955.02,-181.11C942,-186.54 927.78,-192.81 915.01,-199.2 867.64,-222.91 815.76,-253.82 779.19,-276.5"/>
<ellipse fill="none" stroke="#64748b" stroke-width="1.1" cx="776.75" cy="-278.01" rx="2.8" ry="2.8"/>
<text xml:space="preserve" text-anchor="middle" x="869.63" y="-236.73" font-family="Segoe UI" font-size="9.00">instrument</text>
</g>
<!-- acquire -->
<g id="node9" class="node">
<title>acquire</title>
<ellipse fill="#eff6ff" stroke="#174da6" stroke-width="1.3" cx="269.42" cy="-420.2" rx="84.26" ry="31.4"/>
<text xml:space="preserve" text-anchor="middle" x="269.42" y="-424.75" font-family="Microsoft YaHei" font-size="11.00">获取官方证据</text>
<text xml:space="preserve" text-anchor="middle" x="269.42" y="-409.75" font-family="Microsoft YaHei" font-size="11.00">Evidence Acquiring</text>
</g>
<!-- evidence -->
<g id="node14" class="node">
<title>evidence</title>
<polygon fill="#f8fafc" stroke="#64748b" stroke-width="1.3" points="535.84,-442.4 432.43,-442.4 432.43,-398 535.84,-398 535.84,-442.4"/>
<text xml:space="preserve" text-anchor="middle" x="484.13" y="-424.75" font-family="Microsoft YaHei" font-size="11.00">来源证据</text>
<text xml:space="preserve" text-anchor="middle" x="484.13" y="-409.75" font-family="Microsoft YaHei" font-size="11.00">Source Evidence</text>
</g>
<!-- acquire&#45;&gt;evidence -->
<g id="edge2" class="edge">
<title>acquire&#45;&gt;evidence</title>
<path fill="none" stroke="#166534" stroke-width="1.1" d="M354.18,-420.2C377.38,-420.2 402.08,-420.2 423.59,-420.2"/>
<polygon fill="#166534" stroke="#166534" stroke-width="1.1" points="423.31,-422.65 430.31,-420.2 423.31,-417.75 423.31,-422.65"/>
<text xml:space="preserve" text-anchor="middle" x="388.55" y="-424.4" font-family="Segoe UI" font-size="9.00">result</text>
</g>
<!-- archive&#45;&gt;archived -->
<g id="edge28" class="edge">
<title>archive&#45;&gt;archived</title>
<path fill="none" stroke="#166534" stroke-width="1.1" d="M1182.84,-106.22C1135.24,-102.82 1077.86,-98.73 1040.31,-96.05"/>
<polygon fill="#166534" stroke="#166534" stroke-width="1.1" points="1040.49,-93.61 1033.34,-95.55 1040.14,-98.5 1040.49,-93.61"/>
<text xml:space="preserve" text-anchor="middle" x="1129.04" y="-108.04" font-family="Segoe UI" font-size="9.00">output</text>
</g>
<!-- catalog -->
<g id="node11" class="node">
<title>catalog</title>
<polygon fill="#f8fafc" stroke="#64748b" stroke-width="1.3" points="1558.13,-330.4 1431.47,-330.4 1431.47,-286 1558.13,-286 1558.13,-330.4"/>
<text xml:space="preserve" text-anchor="middle" x="1494.8" y="-312.75" font-family="Microsoft YaHei" font-size="11.00">已发布目录</text>
<text xml:space="preserve" text-anchor="middle" x="1494.8" y="-297.75" font-family="Microsoft YaHei" font-size="11.00">Published Catalogue</text>
</g>
<!-- archive&#45;&gt;catalog -->
<g id="edge30" class="edge">
<title>archive&#45;&gt;catalog</title>
<path fill="none" stroke="#174da6" stroke-width="1.1" d="M1333.3,-139.6C1342.95,-144.84 1352.5,-150.74 1360.97,-157.2 1407.23,-192.48 1449.55,-245.82 1473.46,-278.75"/>
<polygon fill="#174da6" stroke="#174da6" stroke-width="1.1" points="1334.72,-137.58 1327.38,-136.49 1332.44,-141.92 1334.72,-137.58"/>
<polygon fill="#174da6" stroke="#174da6" stroke-width="1.1" points="1471.23,-279.85 1477.3,-284.1 1475.21,-276.99 1471.23,-279.85"/>
<text xml:space="preserve" text-anchor="middle" x="1396.22" y="-201.87" font-family="Segoe UI" font-size="9.00">effect</text>
</g>
<!-- deadline -->
<g id="node12" class="node">
<title>deadline</title>
<polygon fill="#f8fafc" stroke="#64748b" stroke-width="1.3" points="1083.67,-44.4 915.01,-44.4 915.01,0 1083.67,0 1083.67,-44.4"/>
<text xml:space="preserve" text-anchor="middle" x="999.34" y="-26.75" font-family="Microsoft YaHei" font-size="11.00">截止与源更新信号</text>
<text xml:space="preserve" text-anchor="middle" x="999.34" y="-11.75" font-family="Microsoft YaHei" font-size="11.00">Deadline and Source Change</text>
</g>
<!-- deadline&#45;&gt;archive -->
<g id="edge29" class="edge">
<title>deadline&#45;&gt;archive</title>
<path fill="none" stroke="#64748b" stroke-width="1.1" d="M1084.13,-12C1106.17,-11.93 1129.6,-14.29 1150.42,-21.45 1182.83,-32.6 1213.14,-56.91 1234.69,-77.56"/>
<ellipse fill="none" stroke="#64748b" stroke-width="1.1" cx="1237.02" cy="-79.84" rx="2.8" ry="2.8"/>
<text xml:space="preserve" text-anchor="middle" x="1129.04" y="-25.65" font-family="Segoe UI" font-size="9.00">instrument</text>
</g>
<!-- deadline&#45;&gt;invalidate -->
<g id="edge26" class="edge">
<title>deadline&#45;&gt;invalidate</title>
<path fill="none" stroke="#64748b" stroke-width="1.1" d="M1084.14,-41.28C1108.21,-50.31 1132.72,-63.44 1150.42,-82.45 1174.2,-107.98 1151.57,-130.83 1174.42,-157.2 1180.8,-164.56 1188.66,-170.83 1197.08,-176.14"/>
<ellipse fill="none" stroke="#64748b" stroke-width="1.1" cx="1199.51" cy="-177.6" rx="2.8" ry="2.8"/>
<text xml:space="preserve" text-anchor="middle" x="1129.04" y="-86.65" font-family="Segoe UI" font-size="9.00">instrument</text>
</g>
<!-- editor -->
<g id="node13" class="node">
<title>editor</title>
<polygon fill="#f8fafc" stroke="#64748b" stroke-width="2.6" stroke-dasharray="5,2" points="539.96,-599.4 428.3,-599.4 428.3,-555 539.96,-555 539.96,-599.4"/>
<text xml:space="preserve" text-anchor="middle" x="484.13" y="-581.75" font-family="Microsoft YaHei" font-size="11.00">内容审核者</text>
<text xml:space="preserve" text-anchor="middle" x="484.13" y="-566.75" font-family="Microsoft YaHei" font-size="11.00">Content Reviewer</text>
</g>
<!-- editor&#45;&gt;reject -->
<g id="edge12" class="edge">
<title>editor&#45;&gt;reject</title>
<path fill="none" stroke="#1f2937" stroke-width="1.1" d="M541.06,-577.2C569.53,-577.2 604.87,-577.2 637.18,-577.2"/>
<ellipse fill="#1f2937" stroke="#1f2937" stroke-width="1.1" cx="640.25" cy="-577.2" rx="2.8" ry="2.8"/>
<text xml:space="preserve" text-anchor="middle" x="590.21" y="-581.4" font-family="Segoe UI" font-size="9.00">agent</text>
</g>
<!-- editor&#45;&gt;review -->
<g id="edge17" class="edge">
<title>editor&#45;&gt;review</title>
<path fill="none" stroke="#1f2937" stroke-width="1.1" d="M540.53,-553.8C564.97,-541.19 592.43,-523.58 611.59,-501.2 630,-479.69 616.21,-462.84 635.59,-442.2 642.42,-434.92 650.67,-428.69 659.42,-423.38"/>
<ellipse fill="#1f2937" stroke="#1f2937" stroke-width="1.1" cx="662.01" cy="-421.88" rx="2.8" ry="2.8"/>
<text xml:space="preserve" text-anchor="middle" x="590.21" y="-539.42" font-family="Segoe UI" font-size="9.00">agent</text>
</g>
<!-- editor&#45;&gt;verify -->
<g id="edge7" class="edge">
<title>editor&#45;&gt;verify</title>
<path fill="none" stroke="#1f2937" stroke-width="1.1" d="M541.06,-597.85C578.56,-611.69 627.97,-629.93 666.71,-644.23"/>
<ellipse fill="#1f2937" stroke="#1f2937" stroke-width="1.1" cx="669.69" cy="-645.33" rx="2.8" ry="2.8"/>
<text xml:space="preserve" text-anchor="middle" x="590.21" y="-626.4" font-family="Segoe UI" font-size="9.00">agent</text>
</g>
<!-- normalize -->
<g id="node16" class="node">
<title>normalize</title>
<ellipse fill="#eff6ff" stroke="#174da6" stroke-width="1.3" cx="729.92" cy="-487.2" rx="82.14" ry="31.4"/>
<text xml:space="preserve" text-anchor="middle" x="729.92" y="-491.75" font-family="Microsoft YaHei" font-size="11.00">结构化来源事实</text>
<text xml:space="preserve" text-anchor="middle" x="729.92" y="-476.75" font-family="Microsoft YaHei" font-size="11.00">Record Structuring</text>
</g>
<!-- evidence&#45;&gt;normalize -->
<g id="edge3" class="edge">
<title>evidence&#45;&gt;normalize</title>
<path fill="none" stroke="#64748b" stroke-width="1.1" d="M536.42,-426.38C559.61,-429.79 587.23,-434.73 611.59,-441.45 630.52,-446.67 650.62,-453.87 668.73,-461"/>
<ellipse fill="none" stroke="#64748b" stroke-width="1.1" cx="671.68" cy="-462.18" rx="2.8" ry="2.8"/>
<text xml:space="preserve" text-anchor="middle" x="590.21" y="-445.65" font-family="Segoe UI" font-size="9.00">instrument</text>
</g>
<!-- evidence&#45;&gt;retry -->
<g id="edge32" class="edge">
<title>evidence&#45;&gt;retry</title>
<path fill="none" stroke="#64748b" stroke-width="1.1" d="M524.72,-397.48C538.52,-389.85 554.22,-381.49 568.84,-374.45 599.64,-359.61 634.58,-344.72 663.94,-332.73"/>
<ellipse fill="none" stroke="#64748b" stroke-width="1.1" cx="667.01" cy="-331.48" rx="2.8" ry="2.8"/>
<text xml:space="preserve" text-anchor="middle" x="590.21" y="-378.65" font-family="Segoe UI" font-size="9.00">instrument</text>
</g>
<!-- evidence&#45;&gt;review -->
<g id="edge18" class="edge">
<title>evidence&#45;&gt;review</title>
<path fill="none" stroke="#64748b" stroke-width="1.1" d="M536.45,-403.23C547.05,-400.41 558.21,-397.93 568.84,-396.45 588.46,-393.72 609.57,-392.57 629.81,-392.33"/>
<ellipse fill="none" stroke="#64748b" stroke-width="1.1" cx="633" cy="-392.31" rx="2.8" ry="2.8"/>
<text xml:space="preserve" text-anchor="middle" x="590.21" y="-400.65" font-family="Segoe UI" font-size="9.00">instrument</text>
</g>
<!-- evidence&#45;&gt;verify -->
<g id="edge8" class="edge">
<title>evidence&#45;&gt;verify</title>
<path fill="none" stroke="#64748b" stroke-width="1.1" d="M534.94,-442.89C568.05,-458.42 606.39,-477.42 611.59,-484.45 648.53,-534.42 598.13,-572.62 635.59,-622.2 642.88,-631.86 652.79,-639.54 663.43,-645.63"/>
<ellipse fill="none" stroke="#64748b" stroke-width="1.1" cx="666.11" cy="-647.08" rx="2.8" ry="2.8"/>
<text xml:space="preserve" text-anchor="middle" x="590.21" y="-488.65" font-family="Segoe UI" font-size="9.00">instrument</text>
</g>
<!-- invalidate&#45;&gt;stale -->
<g id="edge25" class="edge">
<title>invalidate&#45;&gt;stale</title>
<path fill="none" stroke="#166534" stroke-width="1.1" d="M1209.2,-177.14C1190.79,-170.32 1170.07,-163.87 1150.42,-160.45 1118.05,-154.81 1081.17,-155.64 1052.07,-157.93"/>
<polygon fill="#166534" stroke="#166534" stroke-width="1.1" points="1052.11,-155.46 1045.35,-158.5 1052.53,-160.35 1052.11,-155.46"/>
<text xml:space="preserve" text-anchor="middle" x="1129.04" y="-164.65" font-family="Segoe UI" font-size="9.00">output</text>
</g>
<!-- normalize&#45;&gt;draft -->
<g id="edge4" class="edge">
<title>normalize&#45;&gt;draft</title>
<path fill="none" stroke="#166534" stroke-width="1.1" d="M809.51,-495.83C837.01,-501.62 866.99,-511.29 891.01,-527.45 905.98,-537.53 900.84,-549.02 915.01,-560.2 929.38,-571.54 947.96,-579.81 963.92,-585.46"/>
<polygon fill="#166534" stroke="#166534" stroke-width="1.1" points="963.01,-587.73 970.42,-587.64 964.57,-583.09 963.01,-587.73"/>
<text xml:space="preserve" text-anchor="middle" x="869.63" y="-531.65" font-family="Segoe UI" font-size="9.00">result</text>
</g>
<!-- publish&#45;&gt;live -->
<g id="edge22" class="edge">
<title>publish&#45;&gt;live</title>
<path fill="none" stroke="#166534" stroke-width="1.1" d="M1202.62,-483.44C1191.94,-477.36 1181.92,-469.72 1174.42,-460.2 1143.79,-421.32 1176.9,-393.27 1150.42,-351.45 1123.18,-308.43 1074.15,-274.99 1039.55,-255.24"/>
<polygon fill="#166534" stroke="#166534" stroke-width="1.1" points="1041.16,-253.33 1033.86,-252.05 1038.77,-257.61 1041.16,-253.33"/>
<text xml:space="preserve" text-anchor="middle" x="1129.04" y="-355.65" font-family="Segoe UI" font-size="9.00">result</text>
</g>
<!-- publish&#45;&gt;catalog -->
<g id="edge23" class="edge">
<title>publish&#45;&gt;catalog</title>
<path fill="none" stroke="#174da6" stroke-width="1.1" d="M1334.36,-477.25C1343.66,-472.15 1352.81,-466.44 1360.97,-460.2 1407.48,-424.61 1449.87,-370.71 1473.7,-337.58"/>
<polygon fill="#174da6" stroke="#174da6" stroke-width="1.1" points="1333.4,-474.99 1328.37,-480.43 1335.7,-479.32 1333.4,-474.99"/>
<polygon fill="#174da6" stroke="#174da6" stroke-width="1.1" points="1475.47,-339.32 1477.53,-332.19 1471.48,-336.47 1475.47,-339.32"/>
<text xml:space="preserve" text-anchor="middle" x="1396.22" y="-443.16" font-family="Segoe UI" font-size="9.00">effect</text>
</g>
<!-- quality -->
<g id="node18" class="node">
<title>quality</title>
<polygon fill="#f8fafc" stroke="#64748b" stroke-width="1.3" points="544.84,-746.4 423.43,-746.4 423.43,-702 544.84,-702 544.84,-746.4"/>
<text xml:space="preserve" text-anchor="middle" x="484.13" y="-728.75" font-family="Microsoft YaHei" font-size="11.00">数据与翻译发布规则</text>
<text xml:space="preserve" text-anchor="middle" x="484.13" y="-713.75" font-family="Microsoft YaHei" font-size="11.00">Content Rules</text>
</g>
<!-- quality&#45;&gt;publish -->
<g id="edge21" class="edge">
<title>quality&#45;&gt;publish</title>
<path fill="none" stroke="#64748b" stroke-width="1.1" d="M545.49,-743.45C658.02,-775.68 904.67,-828.9 1083.67,-741.2 1168.35,-699.71 1225.09,-598.06 1250.84,-542.67"/>
<ellipse fill="none" stroke="#64748b" stroke-width="1.1" cx="1252.14" cy="-539.85" rx="2.8" ry="2.8"/>
<text xml:space="preserve" text-anchor="middle" x="869.63" y="-793.36" font-family="Segoe UI" font-size="9.00">instrument</text>
</g>
<!-- quality&#45;&gt;verify -->
<g id="edge9" class="edge">
<title>quality&#45;&gt;verify</title>
<path fill="none" stroke="#64748b" stroke-width="1.1" d="M545.4,-710.11C579.52,-702.13 622.38,-692.11 658.11,-683.76"/>
<ellipse fill="none" stroke="#64748b" stroke-width="1.1" cx="660.97" cy="-683.09" rx="2.8" ry="2.8"/>
<text xml:space="preserve" text-anchor="middle" x="590.21" y="-708.34" font-family="Segoe UI" font-size="9.00">instrument</text>
</g>
<!-- reject&#45;&gt;rejected -->
<g id="edge11" class="edge">
<title>reject&#45;&gt;rejected</title>
<path fill="none" stroke="#166534" stroke-width="1.1" d="M806.12,-562.3C848.96,-553.81 901.77,-543.34 941.19,-535.53"/>
<polygon fill="#166534" stroke="#166534" stroke-width="1.1" points="941.37,-537.99 947.76,-534.22 940.42,-533.18 941.37,-537.99"/>
<text xml:space="preserve" text-anchor="middle" x="869.63" y="-558.07" font-family="Segoe UI" font-size="9.00">output</text>
</g>
<!-- retry&#45;&gt;draft -->
<g id="edge33" class="edge">
<title>retry&#45;&gt;draft</title>
<path fill="none" stroke="#166534" stroke-width="1.1" d="M815.8,-309.79C843.59,-315.01 872.15,-325.87 891.01,-347.45 953.64,-419.09 857.97,-484.03 915.01,-560.2 926.57,-575.64 946.23,-584.32 963.55,-589.17"/>
<polygon fill="#166534" stroke="#166534" stroke-width="1.1" points="962.82,-591.51 970.21,-590.85 964.02,-586.76 962.82,-591.51"/>
<text xml:space="preserve" text-anchor="middle" x="869.63" y="-351.65" font-family="Segoe UI" font-size="9.00">result</text>
</g>
<!-- review&#45;&gt;reviewed -->
<g id="edge16" class="edge">
<title>review&#45;&gt;reviewed</title>
<path fill="none" stroke="#166534" stroke-width="1.1" d="M811.88,-381.15C857.9,-372.03 913.85,-360.95 952.38,-353.31"/>
<polygon fill="#166534" stroke="#166534" stroke-width="1.1" points="952.79,-355.72 959.18,-351.96 951.84,-350.92 952.79,-355.72"/>
<text xml:space="preserve" text-anchor="middle" x="869.63" y="-378.07" font-family="Segoe UI" font-size="9.00">output</text>
</g>
<!-- source -->
<g id="node22" class="node">
<title>source</title>
<polygon fill="#f8fafc" stroke="#64748b" stroke-width="1.3" stroke-dasharray="5,2" points="94.41,-442.4 0,-442.4 0,-398 94.41,-398 94.41,-442.4"/>
<text xml:space="preserve" text-anchor="middle" x="47.2" y="-424.75" font-family="Microsoft YaHei" font-size="11.00">官方来源</text>
<text xml:space="preserve" text-anchor="middle" x="47.2" y="-409.75" font-family="Microsoft YaHei" font-size="11.00">Official Source</text>
</g>
<!-- source&#45;&gt;acquire -->
<g id="edge1" class="edge">
<title>source&#45;&gt;acquire</title>
<path fill="none" stroke="#64748b" stroke-width="1.1" d="M94.91,-420.2C119.2,-420.2 149.75,-420.2 178.41,-420.2"/>
<ellipse fill="none" stroke="#64748b" stroke-width="1.1" cx="181.53" cy="-420.2" rx="2.8" ry="2.8"/>
<text xml:space="preserve" text-anchor="middle" x="139.78" y="-424.4" font-family="Segoe UI" font-size="9.00">instrument</text>
</g>
<!-- translate&#45;&gt;translated -->
<g id="edge14" class="edge">
<title>translate&#45;&gt;translated</title>
<path fill="none" stroke="#166534" stroke-width="1.1" d="M1181.35,-415.2C1134.36,-415.2 1078.2,-415.2 1041.03,-415.2"/>
<polygon fill="#166534" stroke="#166534" stroke-width="1.1" points="1041.13,-412.75 1034.13,-415.2 1041.13,-417.65 1041.13,-412.75"/>
<text xml:space="preserve" text-anchor="middle" x="1129.04" y="-419.4" font-family="Segoe UI" font-size="9.00">result</text>
</g>
<!-- verify&#45;&gt;verified -->
<g id="edge6" class="edge">
<title>verify&#45;&gt;verified</title>
<path fill="none" stroke="#166534" stroke-width="1.1" d="M804.7,-666.92C855.4,-666.73 920.59,-666.49 960.91,-666.34"/>
<polygon fill="#166534" stroke="#166534" stroke-width="1.1" points="960.71,-668.79 967.71,-666.31 960.7,-663.89 960.71,-668.79"/>
<text xml:space="preserve" text-anchor="middle" x="869.63" y="-670.96" font-family="Segoe UI" font-size="9.00">output</text>
</g>
</g>
</svg>
