<?xml version="1.0" encoding="UTF-8" standalone="no"?>
<!DOCTYPE svg PUBLIC "-//W3C//DTD SVG 1.1//EN"
 "http://www.w3.org/Graphics/SVG/1.1/DTD/svg11.dtd">
<!-- Generated by graphviz version 14.1.5 (20260411.2331)
 -->
<!-- Title: SD4A Pages: 1 -->
<svg width="1581pt" height="664pt"
 viewBox="0.00 0.00 1581.00 664.00" xmlns="http://www.w3.org/2000/svg" xmlns:xlink="http://www.w3.org/1999/xlink">
<g id="graph0" class="graph" transform="scale(1 1) rotate(0) translate(21.6 642.27)">
<title>SD4A</title>
<polygon fill="#ffffff" stroke="none" points="-21.6,21.6 -21.6,-642.27 1559.63,-642.27 1559.63,21.6 -21.6,21.6"/>
<text xml:space="preserve" text-anchor="middle" x="769.01" y="-599.57" font-family="Microsoft YaHei" font-size="18.00">SD4A &#160;注册来源驱动的动态岗位发现</text>
<text xml:space="preserve" text-anchor="middle" x="769.01" y="-574.82" font-family="Microsoft YaHei" font-size="18.00">ISO 19450:2024 · OPM semantic mapping / DOT</text>
<g id="clust1" class="cluster">
<title>cluster_jobs</title>
<polygon fill="#ffffff" stroke="#64748b" points="1369.37,-250.97 1369.37,-493.97 1530.03,-493.97 1530.03,-250.97 1369.37,-250.97"/>
<text xml:space="preserve" text-anchor="middle" x="1449.7" y="-478.57" font-family="Microsoft YaHei" font-size="12.00">科研岗位记录</text>
<text xml:space="preserve" text-anchor="middle" x="1449.7" y="-462.07" font-family="Microsoft YaHei" font-size="12.00">Research Job Record</text>
</g>
<g id="clust2" class="cluster">
<title>cluster_vacancycandidate</title>
<polygon fill="#ffffff" stroke="#64748b" points="690.2,-124.97 690.2,-509.97 907.86,-509.97 907.86,-124.97 690.2,-124.97"/>
<text xml:space="preserve" text-anchor="middle" x="799.03" y="-494.57" font-family="Microsoft YaHei" font-size="12.00">动态发现岗位候选</text>
<text xml:space="preserve" text-anchor="middle" x="799.03" y="-478.07" font-family="Microsoft YaHei" font-size="12.00">Dynamic Vacancy Candidate</text>
</g>
<!-- eligiblejob -->
<g id="node1" class="node">
<title>eligiblejob</title>
<path fill="#fff7e6" stroke="#b7791f" stroke-width="1.3" d="M1510.03,-303.17C1510.03,-303.17 1389.37,-303.17 1389.37,-303.17 1383.37,-303.17 1377.37,-297.17 1377.37,-291.17 1377.37,-291.17 1377.37,-270.77 1377.37,-270.77 1377.37,-264.77 1383.37,-258.77 1389.37,-258.77 1389.37,-258.77 1510.03,-258.77 1510.03,-258.77 1516.03,-258.77 1522.03,-264.77 1522.03,-270.77 1522.03,-270.77 1522.03,-291.17 1522.03,-291.17 1522.03,-297.17 1516.03,-303.17 1510.03,-303.17"/>
<text xml:space="preserve" text-anchor="middle" x="1449.7" y="-285.52" font-family="Microsoft YaHei" font-size="11.00">硕士可申请且确认带薪</text>
<text xml:space="preserve" text-anchor="middle" x="1449.7" y="-270.52" font-family="Microsoft YaHei" font-size="11.00">master eligible and paid</text>
</g>
<!-- otherjob -->
<g id="node2" class="node">
<title>otherjob</title>
<path fill="#fff7e6" stroke="#b7791f" stroke-width="1.3" d="M1498.78,-374.17C1498.78,-374.17 1400.62,-374.17 1400.62,-374.17 1394.62,-374.17 1388.62,-368.17 1388.62,-362.17 1388.62,-362.17 1388.62,-341.77 1388.62,-341.77 1388.62,-335.77 1394.62,-329.77 1400.62,-329.77 1400.62,-329.77 1498.78,-329.77 1498.78,-329.77 1504.78,-329.77 1510.78,-335.77 1510.78,-341.77 1510.78,-341.77 1510.78,-362.17 1510.78,-362.17 1510.78,-368.17 1504.78,-374.17 1498.78,-374.17"/>
<text xml:space="preserve" text-anchor="middle" x="1449.7" y="-356.52" font-family="Microsoft YaHei" font-size="11.00">其他资格或证据不足</text>
<text xml:space="preserve" text-anchor="middle" x="1449.7" y="-341.52" font-family="Microsoft YaHei" font-size="11.00">other or unresolved</text>
</g>
<!-- uncheckedjob -->
<g id="node3" class="node">
<title>uncheckedjob</title>
<path fill="#fff7e6" stroke="#b7791f" stroke-width="1.3" d="M1475.9,-445.17C1475.9,-445.17 1423.49,-445.17 1423.49,-445.17 1417.49,-445.17 1411.49,-439.17 1411.49,-433.17 1411.49,-433.17 1411.49,-412.77 1411.49,-412.77 1411.49,-406.77 1417.49,-400.77 1423.49,-400.77 1423.49,-400.77 1475.9,-400.77 1475.9,-400.77 1481.9,-400.77 1487.9,-406.77 1487.9,-412.77 1487.9,-412.77 1487.9,-433.17 1487.9,-433.17 1487.9,-439.17 1481.9,-445.17 1475.9,-445.17"/>
<text xml:space="preserve" text-anchor="middle" x="1449.7" y="-427.52" font-family="Microsoft YaHei" font-size="11.00">资格未核验</text>
<text xml:space="preserve" text-anchor="middle" x="1449.7" y="-412.52" font-family="Microsoft YaHei" font-size="11.00">unchecked</text>
</g>
<!-- vacancydiscovered -->
<g id="node4" class="node">
<title>vacancydiscovered</title>
<path fill="#fff7e6" stroke="#b7791f" stroke-width="1.3" d="M824.86,-461.17C824.86,-461.17 773.2,-461.17 773.2,-461.17 767.2,-461.17 761.2,-455.17 761.2,-449.17 761.2,-449.17 761.2,-428.77 761.2,-428.77 761.2,-422.77 767.2,-416.77 773.2,-416.77 773.2,-416.77 824.86,-416.77 824.86,-416.77 830.86,-416.77 836.86,-422.77 836.86,-428.77 836.86,-428.77 836.86,-449.17 836.86,-449.17 836.86,-455.17 830.86,-461.17 824.86,-461.17"/>
<text xml:space="preserve" text-anchor="middle" x="799.03" y="-443.52" font-family="Microsoft YaHei" font-size="11.00">已发现</text>
<text xml:space="preserve" text-anchor="middle" x="799.03" y="-428.52" font-family="Microsoft YaHei" font-size="11.00">discovered</text>
</g>
<!-- vacancyqualify -->
<g id="node21" class="node">
<title>vacancyqualify</title>
<ellipse fill="#eff6ff" stroke="#174da6" stroke-width="1.3" cx="1149.11" cy="-225.97" rx="158.51" ry="31.4"/>
<text xml:space="preserve" text-anchor="middle" x="1149.11" y="-230.52" font-family="Microsoft YaHei" font-size="11.00">定界岗位正文并辨认雇主</text>
<text xml:space="preserve" text-anchor="middle" x="1149.11" y="-215.52" font-family="Microsoft YaHei" font-size="11.00">Vacancy Scope and Employer Resolving</text>
</g>
<!-- vacancydiscovered&#45;&gt;vacancyqualify -->
<g id="edge8" class="edge">
<title>vacancydiscovered&#45;&gt;vacancyqualify</title>
<path fill="none" stroke="#b45309" stroke-width="1.1" d="M837.28,-436.12C860.76,-432.35 889.91,-423.7 907.86,-403.97 929.85,-379.81 903.47,-357.75 923.86,-332.22 953.53,-295.07 999.31,-270.2 1041.79,-253.93"/>
<polygon fill="#b45309" stroke="#b45309" stroke-width="1.1" points="1042.41,-256.31 1048.11,-251.57 1040.7,-251.72 1042.41,-256.31"/>
<text xml:space="preserve" text-anchor="middle" x="945.23" y="-336.42" font-family="Segoe UI" font-size="9.00">input</text>
</g>
<!-- vacancyquarantine -->
<g id="node22" class="node">
<title>vacancyquarantine</title>
<ellipse fill="#eff6ff" stroke="#174da6" stroke-width="1.3" cx="457.43" cy="-376.97" rx="143.66" ry="31.4"/>
<text xml:space="preserve" text-anchor="middle" x="457.43" y="-381.52" font-family="Microsoft YaHei" font-size="11.00">隔离雇主不明候选</text>
<text xml:space="preserve" text-anchor="middle" x="457.43" y="-366.52" font-family="Microsoft YaHei" font-size="11.00">Unresolved Employer Quarantining</text>
</g>
<!-- vacancydiscovered&#45;&gt;vacancyquarantine -->
<g id="edge13" class="edge">
<title>vacancydiscovered&#45;&gt;vacancyquarantine</title>
<path fill="none" stroke="#b45309" stroke-width="1.1" d="M760.58,-432.14C716.65,-424.12 641.63,-410.42 577.34,-398.68"/>
<polygon fill="#b45309" stroke="#b45309" stroke-width="1.1" points="578.12,-396.34 570.8,-397.49 577.24,-401.16 578.12,-396.34"/>
<text xml:space="preserve" text-anchor="middle" x="652.82" y="-419.55" font-family="Segoe UI" font-size="9.00">input</text>
</g>
<!-- vacancyexcluded -->
<g id="node5" class="node">
<title>vacancyexcluded</title>
<path fill="#fff7e6" stroke="#b7791f" stroke-width="1.3" d="M887.86,-177.17C887.86,-177.17 710.2,-177.17 710.2,-177.17 704.2,-177.17 698.2,-171.17 698.2,-165.17 698.2,-165.17 698.2,-144.77 698.2,-144.77 698.2,-138.77 704.2,-132.77 710.2,-132.77 710.2,-132.77 887.86,-132.77 887.86,-132.77 893.86,-132.77 899.86,-138.77 899.86,-144.77 899.86,-144.77 899.86,-165.17 899.86,-165.17 899.86,-171.17 893.86,-177.17 887.86,-177.17"/>
<text xml:space="preserve" text-anchor="middle" x="799.03" y="-159.52" font-family="Microsoft YaHei" font-size="11.00">不再符合研究或技术岗位范围</text>
<text xml:space="preserve" text-anchor="middle" x="799.03" y="-144.52" font-family="Microsoft YaHei" font-size="11.00">outside supported catalogue scope</text>
</g>
<!-- vacancyquarantined -->
<g id="node6" class="node">
<title>vacancyquarantined</title>
<path fill="#fff7e6" stroke="#b7791f" stroke-width="1.3" d="M847.73,-390.17C847.73,-390.17 750.32,-390.17 750.32,-390.17 744.32,-390.17 738.32,-384.17 738.32,-378.17 738.32,-378.17 738.32,-357.77 738.32,-357.77 738.32,-351.77 744.32,-345.77 750.32,-345.77 750.32,-345.77 847.73,-345.77 847.73,-345.77 853.73,-345.77 859.73,-351.77 859.73,-357.77 859.73,-357.77 859.73,-378.17 859.73,-378.17 859.73,-384.17 853.73,-390.17 847.73,-390.17"/>
<text xml:space="preserve" text-anchor="middle" x="799.03" y="-372.52" font-family="Microsoft YaHei" font-size="11.00">法定雇主未明待核验</text>
<text xml:space="preserve" text-anchor="middle" x="799.03" y="-357.52" font-family="Microsoft YaHei" font-size="11.00">quarantined</text>
</g>
<!-- vacancyready -->
<g id="node7" class="node">
<title>vacancyready</title>
<path fill="#fff7e6" stroke="#b7791f" stroke-width="1.3" d="M858.98,-248.17C858.98,-248.17 739.07,-248.17 739.07,-248.17 733.07,-248.17 727.07,-242.17 727.07,-236.17 727.07,-236.17 727.07,-215.77 727.07,-215.77 727.07,-209.77 733.07,-203.77 739.07,-203.77 739.07,-203.77 858.98,-203.77 858.98,-203.77 864.98,-203.77 870.98,-209.77 870.98,-215.77 870.98,-215.77 870.98,-236.17 870.98,-236.17 870.98,-242.17 864.98,-248.17 858.98,-248.17"/>
<text xml:space="preserve" text-anchor="middle" x="799.03" y="-230.52" font-family="Microsoft YaHei" font-size="11.00">正文已定界且雇主可归属</text>
<text xml:space="preserve" text-anchor="middle" x="799.03" y="-215.52" font-family="Microsoft YaHei" font-size="11.00">scoped and attributable</text>
</g>
<!-- vacancydisappear -->
<g id="node17" class="node">
<title>vacancydisappear</title>
<ellipse fill="#eff6ff" stroke="#174da6" stroke-width="1.3" cx="457.43" cy="-244.97" rx="133.58" ry="31.4"/>
<text xml:space="preserve" text-anchor="middle" x="457.43" y="-249.52" font-family="Microsoft YaHei" font-size="11.00">记录完整目录中的岗位消失</text>
<text xml:space="preserve" text-anchor="middle" x="457.43" y="-234.52" font-family="Microsoft YaHei" font-size="11.00">Listing Disappearance Recording</text>
</g>
<!-- vacancyready&#45;&gt;vacancydisappear -->
<g id="edge16" class="edge">
<title>vacancyready&#45;&gt;vacancydisappear</title>
<path fill="none" stroke="#b45309" stroke-width="1.1" d="M726.51,-229.98C688.72,-232.09 641.02,-234.76 596.38,-237.26"/>
<polygon fill="#b45309" stroke="#b45309" stroke-width="1.1" points="596.3,-234.81 589.45,-237.64 596.57,-239.7 596.3,-234.81"/>
<text xml:space="preserve" text-anchor="middle" x="652.82" y="-239.1" font-family="Segoe UI" font-size="9.00">input</text>
</g>
<!-- vacancyexclude -->
<g id="node19" class="node">
<title>vacancyexclude</title>
<ellipse fill="#eff6ff" stroke="#174da6" stroke-width="1.3" cx="457.43" cy="-154.97" rx="150.02" ry="31.4"/>
<text xml:space="preserve" text-anchor="middle" x="457.43" y="-159.52" font-family="Microsoft YaHei" font-size="11.00">记录岗位范围排除</text>
<text xml:space="preserve" text-anchor="middle" x="457.43" y="-144.52" font-family="Microsoft YaHei" font-size="11.00">Catalogue Scope Exclusion Recording</text>
</g>
<!-- vacancyready&#45;&gt;vacancyexclude -->
<g id="edge20" class="edge">
<title>vacancyready&#45;&gt;vacancyexclude</title>
<path fill="none" stroke="#b45309" stroke-width="1.1" d="M726.5,-211.02C682.12,-201.74 624.07,-189.61 573.35,-179"/>
<polygon fill="#b45309" stroke="#b45309" stroke-width="1.1" points="573.93,-176.62 566.58,-177.59 572.93,-181.42 573.93,-176.62"/>
<text xml:space="preserve" text-anchor="middle" x="652.82" y="-203.12" font-family="Segoe UI" font-size="9.00">input</text>
</g>
<!-- vacancynormalize -->
<g id="node20" class="node">
<title>vacancynormalize</title>
<ellipse fill="#eff6ff" stroke="#174da6" stroke-width="1.3" cx="1149.11" cy="-422.97" rx="126.15" ry="31.4"/>
<text xml:space="preserve" text-anchor="middle" x="1149.11" y="-427.52" font-family="Microsoft YaHei" font-size="11.00">结构化动态岗位候选</text>
<text xml:space="preserve" text-anchor="middle" x="1149.11" y="-412.52" font-family="Microsoft YaHei" font-size="11.00">Vacancy Candidate Structuring</text>
</g>
<!-- vacancyready&#45;&gt;vacancynormalize -->
<g id="edge24" class="edge">
<title>vacancyready&#45;&gt;vacancynormalize</title>
<path fill="none" stroke="#64748b" stroke-width="1.1" d="M871.54,-237.24C885.25,-242.43 898.29,-249.99 907.86,-260.97 934.54,-291.61 897.13,-320.38 923.86,-350.97 950.03,-380.94 988.71,-398.52 1026.59,-408.81"/>
<ellipse fill="none" stroke="#64748b" stroke-width="1.1" cx="1029.42" cy="-409.56" rx="2.8" ry="2.8"/>
<text xml:space="preserve" text-anchor="middle" x="945.23" y="-386.81" font-family="Segoe UI" font-size="9.00">instrument</text>
</g>
<!-- vacancyunavailable -->
<g id="node8" class="node">
<title>vacancyunavailable</title>
<path fill="#fff7e6" stroke="#b7791f" stroke-width="1.3" d="M842.11,-319.17C842.11,-319.17 755.95,-319.17 755.95,-319.17 749.95,-319.17 743.95,-313.17 743.95,-307.17 743.95,-307.17 743.95,-286.77 743.95,-286.77 743.95,-280.77 749.95,-274.77 755.95,-274.77 755.95,-274.77 842.11,-274.77 842.11,-274.77 848.11,-274.77 854.11,-280.77 854.11,-286.77 854.11,-286.77 854.11,-307.17 854.11,-307.17 854.11,-313.17 848.11,-319.17 842.11,-319.17"/>
<text xml:space="preserve" text-anchor="middle" x="799.03" y="-301.52" font-family="Microsoft YaHei" font-size="11.00">完整目录中已消失</text>
<text xml:space="preserve" text-anchor="middle" x="799.03" y="-286.52" font-family="Microsoft YaHei" font-size="11.00">unavailable</text>
</g>
<!-- discoverycursor -->
<g id="node9" class="node">
<title>discoverycursor</title>
<polygon fill="#f8fafc" stroke="#64748b" stroke-width="1.3" points="212.53,-321.17 4.12,-321.17 4.12,-276.77 212.53,-276.77 212.53,-321.17"/>
<text xml:space="preserve" text-anchor="middle" x="108.33" y="-303.52" font-family="Microsoft YaHei" font-size="11.00">发现游标与分页完整性</text>
<text xml:space="preserve" text-anchor="middle" x="108.33" y="-288.52" font-family="Microsoft YaHei" font-size="11.00">Discovery Cursor and Completeness</text>
</g>
<!-- discoverycursor&#45;&gt;vacancydisappear -->
<g id="edge19" class="edge">
<title>discoverycursor&#45;&gt;vacancydisappear</title>
<path fill="none" stroke="#64748b" stroke-width="1.1" d="M151.74,-276.25C176.82,-264.12 209.66,-250.43 240.66,-244.22 266.76,-239 294.99,-236.74 322.17,-236.19"/>
<ellipse fill="none" stroke="#64748b" stroke-width="1.1" cx="325.33" cy="-236.14" rx="2.8" ry="2.8"/>
<text xml:space="preserve" text-anchor="middle" x="262.03" y="-248.42" font-family="Segoe UI" font-size="9.00">instrument</text>
</g>
<!-- vacancydiscover -->
<g id="node18" class="node">
<title>vacancydiscover</title>
<ellipse fill="#eff6ff" stroke="#174da6" stroke-width="1.3" cx="457.43" cy="-466.97" rx="129.87" ry="31.4"/>
<text xml:space="preserve" text-anchor="middle" x="457.43" y="-471.52" font-family="Microsoft YaHei" font-size="11.00">按注册来源发现岗位</text>
<text xml:space="preserve" text-anchor="middle" x="457.43" y="-456.52" font-family="Microsoft YaHei" font-size="11.00">Registered Vacancy Discovering</text>
</g>
<!-- discoverycursor&#45;&gt;vacancydiscover -->
<g id="edge4" class="edge">
<title>discoverycursor&#45;&gt;vacancydiscover</title>
<path fill="none" stroke="#64748b" stroke-width="1.1" d="M212.89,-318.55C238.43,-327.47 264,-340.42 283.41,-359.22 304.86,-380 285.55,-401.63 307.41,-421.97 318.32,-432.12 331.44,-439.99 345.31,-446.08"/>
<ellipse fill="none" stroke="#64748b" stroke-width="1.1" cx="348.21" cy="-447.29" rx="2.8" ry="2.8"/>
<text xml:space="preserve" text-anchor="middle" x="262.03" y="-363.42" font-family="Segoe UI" font-size="9.00">instrument</text>
</g>
<!-- evidence -->
<g id="node10" class="node">
<title>evidence</title>
<polygon fill="#f8fafc" stroke="#64748b" stroke-width="1.3" points="850.73,-562.17 747.32,-562.17 747.32,-517.77 850.73,-517.77 850.73,-562.17"/>
<text xml:space="preserve" text-anchor="middle" x="799.03" y="-544.52" font-family="Microsoft YaHei" font-size="11.00">来源证据</text>
<text xml:space="preserve" text-anchor="middle" x="799.03" y="-529.52" font-family="Microsoft YaHei" font-size="11.00">Source Evidence</text>
</g>
<!-- evidence&#45;&gt;vacancynormalize -->
<g id="edge25" class="edge">
<title>evidence&#45;&gt;vacancynormalize</title>
<path fill="none" stroke="#64748b" stroke-width="1.1" d="M851.34,-528.78C869.33,-524.55 889.59,-519.43 907.86,-513.97 965.96,-496.64 1030.1,-472.06 1077.48,-452.81"/>
<ellipse fill="none" stroke="#64748b" stroke-width="1.1" cx="1080.37" cy="-451.63" rx="2.8" ry="2.8"/>
<text xml:space="preserve" text-anchor="middle" x="945.23" y="-512.04" font-family="Segoe UI" font-size="9.00">instrument</text>
</g>
<!-- evidence&#45;&gt;vacancyqualify -->
<g id="edge10" class="edge">
<title>evidence&#45;&gt;vacancyqualify</title>
<path fill="none" stroke="#64748b" stroke-width="1.1" d="M851.26,-537.14C870.77,-533.78 892.09,-527.08 907.86,-513.97 921.25,-502.85 915.45,-493.47 923.86,-478.22 949.72,-431.35 956.32,-419.08 990.61,-377.97 1026.69,-334.73 1073.79,-290.61 1107.05,-261.12"/>
<ellipse fill="none" stroke="#64748b" stroke-width="1.1" cx="1109.34" cy="-259.1" rx="2.8" ry="2.8"/>
<text xml:space="preserve" text-anchor="middle" x="945.23" y="-482.42" font-family="Segoe UI" font-size="9.00">instrument</text>
</g>
<!-- legalemployer -->
<g id="node11" class="node">
<title>legalemployer</title>
<polygon fill="#f8fafc" stroke="#64748b" stroke-width="1.3" points="873.98,-106.17 724.07,-106.17 724.07,-61.77 873.98,-61.77 873.98,-106.17"/>
<text xml:space="preserve" text-anchor="middle" x="799.03" y="-88.52" font-family="Microsoft YaHei" font-size="11.00">已辨认法定雇主</text>
<text xml:space="preserve" text-anchor="middle" x="799.03" y="-73.52" font-family="Microsoft YaHei" font-size="11.00">Resolved Legal Employer</text>
</g>
<!-- legalemployer&#45;&gt;vacancyqualify -->
<g id="edge12" class="edge">
<title>legalemployer&#45;&gt;vacancyqualify</title>
<path fill="none" stroke="#64748b" stroke-width="1.1" d="M873.77,-106.77C885.25,-110.64 896.93,-114.78 907.86,-118.97 967.34,-141.8 1033.36,-171.53 1081.11,-193.86"/>
<ellipse fill="none" stroke="#64748b" stroke-width="1.1" cx="1084.1" cy="-195.26" rx="2.8" ry="2.8"/>
<text xml:space="preserve" text-anchor="middle" x="945.23" y="-144.7" font-family="Segoe UI" font-size="9.00">instrument</text>
</g>
<!-- listingpage -->
<g id="node12" class="node">
<title>listingpage</title>
<polygon fill="#f8fafc" stroke="#64748b" stroke-width="1.3" points="185.53,-222.17 31.12,-222.17 31.12,-177.77 185.53,-177.77 185.53,-222.17"/>
<text xml:space="preserve" text-anchor="middle" x="108.33" y="-204.52" font-family="Microsoft YaHei" font-size="11.00">分页岗位目录</text>
<text xml:space="preserve" text-anchor="middle" x="108.33" y="-189.52" font-family="Microsoft YaHei" font-size="11.00">Paginated Vacancy Listing</text>
</g>
<!-- listingpage&#45;&gt;vacancydisappear -->
<g id="edge18" class="edge">
<title>listingpage&#45;&gt;vacancydisappear</title>
<path fill="none" stroke="#64748b" stroke-width="1.1" d="M186.07,-199.46C203.98,-199.36 222.99,-199.27 240.66,-199.22 259.66,-199.17 264.57,-196.78 283.41,-199.22 312.34,-202.98 343.33,-210.14 370.97,-217.7"/>
<ellipse fill="none" stroke="#64748b" stroke-width="1.1" cx="373.95" cy="-218.52" rx="2.8" ry="2.8"/>
<text xml:space="preserve" text-anchor="middle" x="262.03" y="-203.42" font-family="Segoe UI" font-size="9.00">instrument</text>
</g>
<!-- listingpage&#45;&gt;vacancydiscover -->
<g id="edge3" class="edge">
<title>listingpage&#45;&gt;vacancydiscover</title>
<path fill="none" stroke="#64748b" stroke-width="1.1" d="M168.56,-222.8C207.59,-241.01 256.32,-270.43 283.41,-312.22 310.57,-354.12 273.51,-385.32 307.41,-421.97 317.12,-432.47 329.18,-440.55 342.2,-446.76"/>
<ellipse fill="none" stroke="#64748b" stroke-width="1.1" cx="345.19" cy="-448.11" rx="2.8" ry="2.8"/>
<text xml:space="preserve" text-anchor="middle" x="262.03" y="-316.42" font-family="Segoe UI" font-size="9.00">instrument</text>
</g>
<!-- listingpage&#45;&gt;vacancyexclude -->
<g id="edge22" class="edge">
<title>listingpage&#45;&gt;vacancyexclude</title>
<path fill="none" stroke="#64748b" stroke-width="1.1" d="M185.98,-187.27C203.9,-184.47 222.93,-181.62 240.66,-179.22 264.94,-175.94 290.8,-172.77 315.87,-169.85"/>
<ellipse fill="none" stroke="#64748b" stroke-width="1.1" cx="318.9" cy="-169.5" rx="2.8" ry="2.8"/>
<text xml:space="preserve" text-anchor="middle" x="262.03" y="-183.42" font-family="Segoe UI" font-size="9.00">instrument</text>
</g>
<!-- registry -->
<g id="node13" class="node">
<title>registry</title>
<polygon fill="#f8fafc" stroke="#64748b" stroke-width="1.3" points="205.78,-411.17 10.87,-411.17 10.87,-366.77 205.78,-366.77 205.78,-411.17"/>
<text xml:space="preserve" text-anchor="middle" x="108.33" y="-393.52" font-family="Microsoft YaHei" font-size="11.00">捷克官方高校来源名录</text>
<text xml:space="preserve" text-anchor="middle" x="108.33" y="-378.52" font-family="Microsoft YaHei" font-size="11.00">Official Institution Source Registry</text>
</g>
<!-- registry&#45;&gt;vacancydiscover -->
<g id="edge2" class="edge">
<title>registry&#45;&gt;vacancydiscover</title>
<path fill="none" stroke="#64748b" stroke-width="1.1" d="M206.02,-410.7C252.28,-421.1 307.68,-433.55 354.6,-444.09"/>
<ellipse fill="none" stroke="#64748b" stroke-width="1.1" cx="357.59" cy="-444.76" rx="2.8" ry="2.8"/>
<text xml:space="preserve" text-anchor="middle" x="262.03" y="-432.17" font-family="Segoe UI" font-size="9.00">instrument</text>
</g>
<!-- registry&#45;&gt;vacancyquarantine -->
<g id="edge15" class="edge">
<title>registry&#45;&gt;vacancyquarantine</title>
<path fill="none" stroke="#64748b" stroke-width="1.1" d="M206.11,-381.09C217.75,-380.35 229.47,-379.7 240.66,-379.22 262.04,-378.32 284.61,-377.71 306.79,-377.3"/>
<ellipse fill="none" stroke="#64748b" stroke-width="1.1" cx="310" cy="-377.25" rx="2.8" ry="2.8"/>
<text xml:space="preserve" text-anchor="middle" x="262.03" y="-383.42" font-family="Segoe UI" font-size="9.00">instrument</text>
</g>
<!-- runnercheckpoint -->
<g id="node14" class="node">
<title>runnercheckpoint</title>
<polygon fill="#f8fafc" stroke="#64748b" stroke-width="1.3" points="193.41,-492.17 23.25,-492.17 23.25,-447.77 193.41,-447.77 193.41,-492.17"/>
<text xml:space="preserve" text-anchor="middle" x="108.33" y="-474.52" font-family="Microsoft YaHei" font-size="11.00">采集运行检查点</text>
<text xml:space="preserve" text-anchor="middle" x="108.33" y="-459.52" font-family="Microsoft YaHei" font-size="11.00">Persisted Runner Checkpoint</text>
</g>
<!-- runnercheckpoint&#45;&gt;vacancydiscover -->
<g id="edge5" class="edge">
<title>runnercheckpoint&#45;&gt;vacancydiscover</title>
<path fill="none" stroke="#64748b" stroke-width="1.1" d="M193.8,-469.24C231.87,-468.92 277.8,-468.52 320.53,-468.15"/>
<ellipse fill="none" stroke="#64748b" stroke-width="1.1" cx="323.74" cy="-468.12" rx="2.8" ry="2.8"/>
<text xml:space="preserve" text-anchor="middle" x="262.03" y="-473.03" font-family="Segoe UI" font-size="9.00">instrument</text>
</g>
<!-- source -->
<g id="node15" class="node">
<title>source</title>
<polygon fill="#f8fafc" stroke="#64748b" stroke-width="1.3" stroke-dasharray="5,2" points="155.53,-563.17 61.12,-563.17 61.12,-518.77 155.53,-518.77 155.53,-563.17"/>
<text xml:space="preserve" text-anchor="middle" x="108.33" y="-545.52" font-family="Microsoft YaHei" font-size="11.00">官方来源</text>
<text xml:space="preserve" text-anchor="middle" x="108.33" y="-530.52" font-family="Microsoft YaHei" font-size="11.00">Official Source</text>
</g>
<!-- source&#45;&gt;vacancydiscover -->
<g id="edge1" class="edge">
<title>source&#45;&gt;vacancydiscover</title>
<path fill="none" stroke="#64748b" stroke-width="1.1" d="M156.14,-530.99C206.16,-520.33 287.05,-503.09 352.28,-489.18"/>
<ellipse fill="none" stroke="#64748b" stroke-width="1.1" cx="355.26" cy="-488.54" rx="2.8" ry="2.8"/>
<text xml:space="preserve" text-anchor="middle" x="262.03" y="-516.98" font-family="Segoe UI" font-size="9.00">instrument</text>
</g>
<!-- vacancydetail -->
<g id="node16" class="node">
<title>vacancydetail</title>
<polygon fill="#f8fafc" stroke="#64748b" stroke-width="1.3" points="216.66,-77.17 0,-77.17 0,-32.77 216.66,-32.77 216.66,-77.17"/>
<text xml:space="preserve" text-anchor="middle" x="108.33" y="-59.52" font-family="Microsoft YaHei" font-size="11.00">岗位官方正文与附件</text>
<text xml:space="preserve" text-anchor="middle" x="108.33" y="-44.52" font-family="Microsoft YaHei" font-size="11.00">Official Vacancy Body and Attachment</text>
</g>
<!-- vacancydetail&#45;&gt;vacancyexclude -->
<g id="edge23" class="edge">
<title>vacancydetail&#45;&gt;vacancyexclude</title>
<path fill="none" stroke="#64748b" stroke-width="1.1" d="M188.53,-77.79C239.87,-92.58 307.04,-111.94 361.28,-127.56"/>
<ellipse fill="none" stroke="#64748b" stroke-width="1.1" cx="364.27" cy="-128.42" rx="2.8" ry="2.8"/>
<text xml:space="preserve" text-anchor="middle" x="262.03" y="-109.17" font-family="Segoe UI" font-size="9.00">instrument</text>
</g>
<!-- vacancydetail&#45;&gt;vacancyqualify -->
<g id="edge11" class="edge">
<title>vacancydetail&#45;&gt;vacancyqualify</title>
<path fill="none" stroke="#64748b" stroke-width="1.1" d="M217,-32.63C373.62,-4.85 671.38,30.08 907.86,-47.97 992.52,-75.92 1071.72,-146.48 1114.68,-189.9"/>
<ellipse fill="none" stroke="#64748b" stroke-width="1.1" cx="1116.88" cy="-192.15" rx="2.8" ry="2.8"/>
<text xml:space="preserve" text-anchor="middle" x="652.82" y="-8.13" font-family="Segoe UI" font-size="9.00">instrument</text>
</g>
<!-- vacancydisappear&#45;&gt;vacancyunavailable -->
<g id="edge17" class="edge">
<title>vacancydisappear&#45;&gt;vacancyunavailable</title>
<path fill="none" stroke="#166534" stroke-width="1.1" d="M570.57,-262.15C625.31,-270.53 689.13,-280.3 735.22,-287.36"/>
<polygon fill="#166534" stroke="#166534" stroke-width="1.1" points="734.67,-289.75 741.96,-288.39 735.41,-284.91 734.67,-289.75"/>
<text xml:space="preserve" text-anchor="middle" x="652.82" y="-281.36" font-family="Segoe UI" font-size="9.00">output</text>
</g>
<!-- vacancydiscover&#45;&gt;vacancydiscovered -->
<g id="edge6" class="edge">
<title>vacancydiscover&#45;&gt;vacancydiscovered</title>
<path fill="none" stroke="#166534" stroke-width="1.1" d="M581.03,-456.87C640.52,-451.96 708.41,-446.36 752.17,-442.76"/>
<polygon fill="#166534" stroke="#166534" stroke-width="1.1" points="752.16,-445.22 758.93,-442.2 751.76,-440.33 752.16,-445.22"/>
<text xml:space="preserve" text-anchor="middle" x="652.82" y="-456.33" font-family="Segoe UI" font-size="9.00">result</text>
</g>
<!-- vacancydiscover&#45;&gt;evidence -->
<g id="edge7" class="edge">
<title>vacancydiscover&#45;&gt;evidence</title>
<path fill="none" stroke="#166534" stroke-width="1.1" d="M555.75,-487.89C614.79,-500.58 688.22,-516.37 738.67,-527.22"/>
<polygon fill="#166534" stroke="#166534" stroke-width="1.1" points="737.89,-529.55 745.25,-528.63 738.92,-524.76 737.89,-529.55"/>
<text xml:space="preserve" text-anchor="middle" x="652.82" y="-516.36" font-family="Segoe UI" font-size="9.00">result</text>
</g>
<!-- vacancyexclude&#45;&gt;vacancyexcluded -->
<g id="edge21" class="edge">
<title>vacancyexclude&#45;&gt;vacancyexcluded</title>
<path fill="none" stroke="#166534" stroke-width="1.1" d="M607.87,-154.2C630.11,-154.16 652.75,-154.16 674.2,-154.22 679.09,-154.24 684.09,-154.26 689.14,-154.28"/>
<polygon fill="#166534" stroke="#166534" stroke-width="1.1" points="688.99,-156.73 696,-154.31 689.01,-151.83 688.99,-156.73"/>
<text xml:space="preserve" text-anchor="middle" x="652.82" y="-158.42" font-family="Segoe UI" font-size="9.00">output</text>
</g>
<!-- vacancynormalize&#45;&gt;uncheckedjob -->
<g id="edge26" class="edge">
<title>vacancynormalize&#45;&gt;uncheckedjob</title>
<path fill="none" stroke="#166534" stroke-width="1.1" d="M1275.88,-422.97C1320.84,-422.97 1368.72,-422.97 1402.65,-422.97"/>
<polygon fill="#166534" stroke="#166534" stroke-width="1.1" points="1402.3,-425.42 1409.3,-422.97 1402.3,-420.52 1402.3,-425.42"/>
<text xml:space="preserve" text-anchor="middle" x="1342.49" y="-427.17" font-family="Segoe UI" font-size="9.00">result</text>
</g>
<!-- vacancyqualify&#45;&gt;vacancyready -->
<g id="edge9" class="edge">
<title>vacancyqualify&#45;&gt;vacancyready</title>
<path fill="none" stroke="#166534" stroke-width="1.1" d="M990.02,-225.97C951.89,-225.97 912.73,-225.97 879.94,-225.97"/>
<polygon fill="#166534" stroke="#166534" stroke-width="1.1" points="879.97,-223.52 872.97,-225.97 879.97,-228.42 879.97,-223.52"/>
<text xml:space="preserve" text-anchor="middle" x="945.23" y="-230.17" font-family="Segoe UI" font-size="9.00">output</text>
</g>
<!-- vacancyquarantine&#45;&gt;vacancyquarantined -->
<g id="edge14" class="edge">
<title>vacancyquarantine&#45;&gt;vacancyquarantined</title>
<path fill="none" stroke="#166534" stroke-width="1.1" d="M600.48,-373.21C645.26,-372.02 692.69,-370.77 729.84,-369.78"/>
<polygon fill="#166534" stroke="#166534" stroke-width="1.1" points="729.49,-372.24 736.43,-369.61 729.36,-367.34 729.49,-372.24"/>
<text xml:space="preserve" text-anchor="middle" x="652.82" y="-376.4" font-family="Segoe UI" font-size="9.00">output</text>
</g>
</g>
</svg>
